<svg xmlns="http://www.w3.org/2000/svg" viewBox="-4 -50.88 771.4 250.88" role="img" aria-label="Snaglist"><path d="M303 -12Q212 -12 147.5 20.0Q83 52 38 101L138 202Q173 162 217.5 142.0Q262 122 313 122Q369 122 396.0 145.0Q423 168 423 206Q423 225 416.5 240.5Q410 256 392.5 266.5Q375 277 342 281L273 290Q200 300 152.5 326.5Q105 353 82.0 396.5Q59 440 59 498Q59 561 90.5 608.5Q122 656 180.5 683.0Q239 710 321 710Q400 710 460.0 684.5Q520 659 563 612L462 510Q437 539 401.5 557.5Q366 576 312 576Q261 576 236.0 558.0Q211 540 211 508Q211 484 219.5 469.0Q228 454 246.5 446.0Q265 438 294 433L363 422Q435 411 482.0 385.0Q529 359 552.0 317.0Q575 275 575 215Q575 148 543.5 97.0Q512 46 451.0 17.0Q390 -12 303 -12Z" transform="translate(0 160) scale(0.2 -0.2)" fill="#1A1D23"/><path d="M217 0H69V525H217V436H223Q237 477 272.0 507.0Q307 537 369 537Q449 537 491.0 482.5Q533 428 533 329V0H385V317Q385 367 369.0 392.0Q353 417 312 417Q288 417 266.5 408.5Q245 400 231.0 383.0Q217 366 217 340Z" transform="translate(124.8 160) scale(0.2 -0.2)" fill="#1A1D23"/><path d="M539 0H457Q430 0 406.5 13.5Q383 27 369.0 53.5Q355 80 355 117V130L387 92H351Q339 41 298.0 14.5Q257 -12 197 -12Q118 -12 76.0 30.5Q34 73 34 141Q34 197 61.5 233.0Q89 269 139.5 287.0Q190 305 259 305H342V338Q342 376 322.0 398.5Q302 421 255 421Q211 421 185.0 402.0Q159 383 142 359L54 437Q86 484 135.0 510.5Q184 537 266 537Q377 537 433.5 487.5Q490 438 490 345V115H539ZM342 221H270Q227 221 205.0 206.0Q183 191 183 162V147Q183 119 201.0 105.0Q219 91 252 91Q277 91 297.0 98.0Q317 105 329.5 120.0Q342 135 342 159Z" transform="translate(244 160) scale(0.2 -0.2)" fill="#1A1D23"/><path d="M555 -38Q555 -93 528.5 -132.0Q502 -171 440.0 -191.5Q378 -212 271 -212Q180 -212 125.5 -197.5Q71 -183 46.5 -155.5Q22 -128 22 -90Q22 -46 48.0 -21.0Q74 4 120 10V21Q83 28 63.5 53.5Q44 79 44 113Q44 154 74.5 176.5Q105 199 142 206V210Q95 232 71.5 270.5Q48 309 48 360Q48 413 73.0 453.0Q98 493 148.0 515.0Q198 537 273 537Q298 537 320.5 534.5Q343 532 362 527V547Q362 588 383.0 607.0Q404 626 441 626H524V516H408V510Q454 488 476.0 449.0Q498 410 498 360Q498 308 473.5 268.5Q449 229 399.0 207.5Q349 186 273 186Q247 186 223.5 189.0Q200 192 180 197Q170 190 163.5 179.5Q157 169 157 155Q157 136 171.5 125.5Q186 115 220 115H372Q468 115 511.5 75.0Q555 35 555 -38ZM416 -58Q416 -35 397.5 -23.0Q379 -11 335 -11H155Q145 -21 140.5 -33.5Q136 -46 136 -58Q136 -86 161.0 -100.0Q186 -114 246 -114H306Q366 -114 391.0 -100.0Q416 -86 416 -58ZM273 283Q317 283 338.5 302.0Q360 321 360 355V367Q360 402 338.5 420.5Q317 439 273 439Q230 439 208.0 420.5Q186 402 186 367V355Q186 321 208.0 302.0Q230 283 273 283Z" transform="translate(357.8 160) scale(0.2 -0.2)" fill="#1A1D23"/><path d="M283 0H216Q140 0 104.5 37.0Q69 74 69 144V740H217V115H283Z" transform="translate(468.2 160) scale(0.2 -0.2)" fill="#1A1D23"/><path d="M217 0H69V525H217Z" transform="translate(528.8 160) scale(0.2 -0.2)" fill="#1A1D23"/><path d="M247 -12Q171 -12 119.0 12.5Q67 37 26 82L113 170Q141 139 175.0 121.0Q209 103 252 103Q296 103 313.0 116.5Q330 130 330 153Q330 173 317.5 183.0Q305 193 277 197L220 204Q161 212 121.5 232.0Q82 252 62.5 285.5Q43 319 43 366Q43 442 98.0 489.5Q153 537 247 537Q302 537 340.0 527.5Q378 518 406.5 499.5Q435 481 461 455L376 368Q351 393 319.5 407.5Q288 422 255 422Q218 422 201.5 410.0Q185 398 185 378Q185 357 196.5 345.5Q208 334 240 329L299 321Q385 310 428.5 270.5Q472 231 472 163Q472 113 444.0 73.0Q416 33 365.5 10.5Q315 -12 247 -12Z" transform="translate(586 160) scale(0.2 -0.2)" fill="#1A1D23"/><path d="M341 0H253Q177 0 137.0 39.0Q97 78 97 153V410H23V525H60Q90 525 101.0 539.5Q112 554 112 581V667H245V525H349V410H245V115H341Z" transform="translate(686.8 160) scale(0.2 -0.2)" fill="#1A1D23"/><path d="M12 1C5.9 1 1.5 5.6 1.5 11.5 1.5 19 12 31 12 31s10.5-12 10.5-19.5C22.5 5.6 18.1 1 12 1z" fill="#D8321E" transform="translate(526.32 -46.88) scale(2.59)"/></svg>